<?xml version="1.0" standalone="no"?>
<!DOCTYPE svg PUBLIC "-//W3C//DTD SVG 20010904//EN"
 "http://www.w3.org/TR/2001/REC-SVG-20010904/DTD/svg10.dtd">
<svg version="1.0" xmlns="http://www.w3.org/2000/svg"
 width="225.000000pt" height="225.000000pt" viewBox="0 0 225.000000 225.000000"
 preserveAspectRatio="xMidYMid meet">
<metadata>
Created by potrace 1.15, written by Peter Selinger 2001-2017
</metadata>
<g transform="translate(0.000000,225.000000) scale(0.100000,-0.100000)"
fill="#000000" stroke="none">
<path d="M1115 2096 c-46 -20 -94 -65 -116 -109 -17 -32 -20 -54 -17 -111 3
-65 7 -77 43 -126 32 -43 40 -63 40 -96 0 -53 -22 -78 -95 -111 -44 -20 -67
-24 -117 -21 -76 5 -123 37 -168 119 -43 75 -85 102 -153 97 -45 -4 -59 -10
-89 -41 -31 -30 -37 -44 -41 -89 -7 -87 40 -138 156 -168 54 -14 117 -70 133
-117 15 -45 5 -165 -16 -197 -32 -49 -93 -58 -165 -25 -153 72 -320 -35 -320
-203 1 -68 27 -126 76 -166 98 -81 237 -67 321 34 40 47 86 69 126 59 24 -6
134 -120 172 -178 41 -63 16 -186 -50 -247 -79 -74 -71 -186 17 -240 60 -36
134 -23 188 35 23 24 25 35 26 118 2 168 55 235 197 251 31 3 81 15 110 26 63
24 81 25 117 4 36 -22 60 -64 60 -106 1 -79 80 -176 162 -198 144 -39 281 65
282 215 1 123 -76 204 -212 225 -44 7 -63 16 -84 40 -34 37 -35 67 -6 140 17
44 22 81 24 183 3 117 6 133 29 172 32 55 79 84 154 95 33 5 72 14 87 22 43
20 74 73 74 127 0 85 -60 144 -147 144 -52 0 -82 -19 -131 -86 -47 -62 -109
-97 -175 -97 -54 0 -205 73 -251 122 -24 26 -27 37 -23 71 3 22 15 52 27 66
70 86 80 203 24 283 -56 81 -184 121 -269 84z"/>
<path d="M1895 1128 c-37 -20 -55 -51 -55 -98 0 -69 43 -110 115 -110 55 0
105 53 105 110 0 34 -6 48 -34 76 -27 27 -42 34 -72 34 -22 0 -48 -6 -59 -12z"/>
<path d="M605 595 c-54 -53 -17 -147 59 -147 79 0 119 91 65 148 -31 33 -91
33 -124 -1z"/>
</g>
</svg>
